<svg width="20" height="20" viewBox="0 0 20 20" fill="none" xmlns="http://www.w3.org/2000/svg">
<path fill-rule="evenodd" clip-rule="evenodd" d="M16.1661 19.3357C16.5354 19.0582 16.6164 18.6016 16.3913 17.957L14.5091 12.3797L19.3181 8.951C19.8765 8.55709 20.1016 8.13633 19.9576 7.69767C19.8135 7.25901 19.3902 7.04415 18.6968 7.0531L12.798 7.09786L11.0059 1.49371C10.7897 0.840188 10.4655 0.5 9.99722 0.5C9.53793 0.5 9.21372 0.840188 8.99759 1.49371L7.20545 7.09786L1.3067 7.0531C0.613255 7.04415 0.189986 7.25901 0.0458942 7.69767C-0.107203 8.13633 0.126946 8.55709 0.685301 8.951L5.49436 12.3797L3.61216 17.957C3.38702 18.6016 3.46807 19.0582 3.83731 19.3357C4.20654 19.6222 4.67484 19.5237 5.23319 19.1208L9.99722 15.6384L14.7703 19.1208C15.3286 19.5237 15.7879 19.6222 16.1661 19.3357ZM14.7883 17.5542L10.4565 14.2687C10.1683 14.0449 9.83512 14.0449 9.54694 14.2687L5.21518 17.5542C5.17916 17.581 5.15214 17.59 5.13413 17.5721C5.11612 17.5452 5.12512 17.5363 5.13413 17.4826L6.92627 12.3708C7.05235 12.0216 6.9803 11.7352 6.6651 11.5203L2.18025 8.44071C2.13522 8.41386 2.12622 8.39595 2.13522 8.37805C2.14423 8.35119 2.16224 8.35119 2.21627 8.35119L7.66474 8.44071C8.03397 8.44967 8.26812 8.30643 8.3852 7.93938L9.95219 2.75599C9.9612 2.70227 9.97921 2.68437 9.99722 2.68437C10.0242 2.68437 10.0423 2.70227 10.0513 2.75599L11.6183 7.93938C11.7353 8.30643 11.9695 8.44967 12.3387 8.44071L17.7872 8.35119C17.8412 8.35119 17.8592 8.35119 17.8682 8.37805C17.8772 8.39595 17.8592 8.41386 17.8232 8.44071L13.3383 11.5203C13.0231 11.7352 12.9511 12.0216 13.0772 12.3708L14.8693 17.4826C14.8783 17.5363 14.8873 17.5452 14.8693 17.5721C14.8513 17.59 14.8243 17.581 14.7883 17.5542Z" fill="#1A1A1A"/>
</svg>
