<svg width="20" height="20" viewBox="0 0 20 20" fill="none" xmlns="http://www.w3.org/2000/svg">
<path fill-rule="evenodd" clip-rule="evenodd" d="M4.24923 6.87583C4.75883 6.87583 5.16521 6.45971 5.16521 5.93791C5.16521 5.42272 4.75883 5 4.24923 5C3.74609 5 3.33325 5.42272 3.33325 5.93791C3.33325 6.45971 3.74609 6.87583 4.24923 6.87583ZM16.0409 6.57212C16.3892 6.57212 16.6666 6.29471 16.6666 5.93804C16.6666 5.58137 16.3957 5.30395 16.0409 5.30395H7.28104C6.93916 5.30395 6.66178 5.58137 6.66178 5.93804C6.66178 6.29471 6.93271 6.57212 7.28104 6.57212H16.0409ZM4.24931 10.9379C4.75891 10.9379 5.1653 10.5218 5.1653 10C5.1653 9.48481 4.75891 9.06209 4.24931 9.06209C3.74617 9.06209 3.33333 9.48481 3.33333 10C3.33333 10.5218 3.74617 10.9379 4.24931 10.9379ZM16.0409 10.6342C16.3892 10.6342 16.6666 10.3568 16.6666 10.0001C16.6666 9.64346 16.3957 9.36605 16.0409 9.36605H7.28104C6.93916 9.36605 6.66178 9.64346 6.66178 10.0001C6.66178 10.3568 6.93271 10.6342 7.28104 10.6342H16.0409ZM4.24931 15C4.75891 15 5.1653 14.5839 5.1653 14.0621C5.1653 13.5469 4.75891 13.1242 4.24931 13.1242C3.74617 13.1242 3.33333 13.5469 3.33333 14.0621C3.33333 14.5839 3.74617 15 4.24931 15ZM16.0409 14.6963C16.3892 14.6963 16.6666 14.4189 16.6666 14.0622C16.6666 13.7056 16.3957 13.4281 16.0409 13.4281H7.28104C6.93916 13.4281 6.66178 13.7056 6.66178 14.0622C6.66178 14.4189 6.93271 14.6963 7.28104 14.6963H16.0409Z" fill="#1A1A1A"/>
</svg>
