<svg width="22" height="21" viewBox="0 0 22 21" fill="none" xmlns="http://www.w3.org/2000/svg">
<path fill-rule="evenodd" clip-rule="evenodd" d="M2.69668 2.66095C2.32822 2.90658 2.24067 3.14708 2.24067 3.29106C2.24067 3.78811 1.83773 4.19106 1.34067 4.19106C0.843618 4.19106 0.440674 3.78811 0.440674 3.29106C0.440674 2.358 1.00795 1.62343 1.69822 1.16325C2.39477 0.698885 3.30521 0.440918 4.26588 0.440918C5.22656 0.440918 6.13699 0.698885 6.83355 1.16325C7.52381 1.62343 8.09109 2.358 8.09109 3.29106C8.09109 3.78811 7.68815 4.19106 7.19109 4.19106C6.69403 4.19106 6.29109 3.78811 6.29109 3.29106C6.29109 3.14708 6.20354 2.90658 5.83509 2.66095C5.47292 2.4195 4.92076 2.24092 4.26588 2.24092C3.61101 2.24092 3.05884 2.4195 2.69668 2.66095Z" fill="#1A1A1A"/>
<path fill-rule="evenodd" clip-rule="evenodd" d="M16.3476 2.66095C15.9791 2.90658 15.8916 3.14708 15.8916 3.29106C15.8916 3.78811 15.4886 4.19106 14.9916 4.19106C14.4945 4.19106 14.0916 3.78811 14.0916 3.29106C14.0916 2.358 14.6588 1.62343 15.3491 1.16325C16.0457 0.698885 16.9561 0.440918 17.9168 0.440918C18.8774 0.440918 19.7879 0.698885 20.4844 1.16325C21.1747 1.62343 21.742 2.358 21.742 3.29106C21.742 3.78811 21.339 4.19106 20.842 4.19106C20.3449 4.19106 19.942 3.78811 19.942 3.29106C19.942 3.14708 19.8544 2.90658 19.486 2.66095C19.1238 2.4195 18.5716 2.24092 17.9168 2.24092C17.2619 2.24092 16.7097 2.4195 16.3476 2.66095Z" fill="#1A1A1A"/>
<path fill-rule="evenodd" clip-rule="evenodd" d="M9.40909 17.5703C9.94442 17.1688 10.1915 16.6829 10.1915 16.2219L10.1915 13.2967C10.1915 12.7996 10.5944 12.3967 11.0915 12.3967C11.5885 12.3967 11.9915 12.7996 11.9915 13.2967L11.9915 16.2219C11.9915 17.3765 11.3654 18.3531 10.4891 19.0103C9.61307 19.6674 8.44411 20.0471 7.19118 20.0471C5.93824 20.0471 4.76928 19.6674 3.89327 19.0103C3.01697 18.3531 2.3909 17.3765 2.3909 16.2219C2.3909 15.7249 2.79385 15.3219 3.2909 15.3219C3.78796 15.3219 4.1909 15.7249 4.1909 16.2219C4.1909 16.6829 4.43794 17.1688 4.97327 17.5703C5.50887 17.9721 6.29005 18.2471 7.19118 18.2471C8.09231 18.2471 8.87349 17.972 9.40909 17.5703Z" fill="#1A1A1A"/>
<path fill-rule="evenodd" clip-rule="evenodd" d="M12.774 17.5703C12.2387 17.1688 11.9917 16.6829 11.9917 16.2219L11.9916 13.2967C11.9916 12.7996 11.5887 12.3967 11.0916 12.3967C10.5946 12.3967 10.1916 12.7996 10.1916 13.2967L10.1917 16.2219C10.1917 17.3765 10.8177 18.3531 11.694 19.0103C12.57 19.6674 13.739 20.0471 14.9919 20.0471C16.2449 20.0471 17.4138 19.6674 18.2898 19.0103C19.1661 18.3531 19.7922 17.3765 19.7922 16.2219C19.7922 15.7249 19.3893 15.3219 18.8922 15.3219C18.3951 15.3219 17.9922 15.7249 17.9922 16.2219C17.9922 16.6829 17.7452 17.1688 17.2098 17.5703C16.6742 17.972 15.8931 18.2471 14.9919 18.2471C14.0908 18.2471 13.3096 17.972 12.774 17.5703Z" fill="#1A1A1A"/>
<path fill-rule="evenodd" clip-rule="evenodd" d="M11.0916 9.32124C9.81246 9.32124 9.06636 10.1564 9.06636 10.8589C9.06636 11.5615 9.81246 12.3966 11.0916 12.3966C12.3707 12.3966 13.1168 11.5615 13.1168 10.8589C13.1168 10.1564 12.3707 9.32124 11.0916 9.32124ZM7.26636 10.8589C7.26636 8.86889 9.13958 7.52124 11.0916 7.52124C13.0436 7.52124 14.9168 8.86889 14.9168 10.8589C14.9168 12.8489 13.0436 14.1966 11.0916 14.1966C9.13958 14.1966 7.26636 12.8489 7.26636 10.8589Z" fill="#1A1A1A"/>
</svg>
